<?xml version="1.0" encoding="utf-8"?>
<!-- Generator: Adobe Illustrator 21.0.0, SVG Export Plug-In . SVG Version: 6.00 Build 0)  -->
<svg version="1.1" id="Layer_1" xmlns="http://www.w3.org/2000/svg" xmlns:xlink="http://www.w3.org/1999/xlink" x="0px" y="0px"
	 width="475px" height="125px" viewBox="0 0 475 125" style="enable-background:new 0 0 475 125;" xml:space="preserve">
<style type="text/css">
	.st0{fill:#005DAA;}
	.st1{fill:#141006;}
</style>
<g>
	<g>
		<g>
			<path class="st0" d="M92.4,114.2h-0.2c-4.6-0.7-6.1-4.5-6-7V73.3c-0.6-11,3.1-16.3,4.1-17.4L113,15.7c2.3-3.8,7-3.9,7.5-3.9H142
				v18.4h-9.3c-0.9,0-1.4,0.1-1.6,0.2l-16.9,29c-4.7,7.4-4.4,13.7-4.4,13.7v0.2v17.6c0,0.1,0,0.1,0,0.2h0.1v0.1h31.6v23H92.4z"/>
			<path class="st0" d="M9.4,114.2v-23h31.7c0-0.1,0-0.1,0-0.3V73v-0.1c0,0,0.3-6.3-4.4-13.7l-16.9-29c-0.2-0.1-0.7-0.2-1.6-0.2H8.9
				V11.7h21.5c0.5,0,5.2,0.1,7.5,3.9l22.7,40.3c1,1.2,4.7,6.4,4.1,17.4V107c0.1,2.4-1.4,6.3-6,7h-0.2H9.4V114.2z"/>
		</g>
		<path class="st1" d="M57.8,11.7l17.6,32.6L93,11.6L57.8,11.7L57.8,11.7z"/>
	</g>
	<path class="st0" d="M176.8,51.5l-20.1-39h24.4l8.3,25h0.2l8.3-25h22.6l-20.1,39v20.6h-23.6V51.5z"/>
	<path class="st0" d="M244,10.8c20.6,0,30.8,12.8,30.8,31.4S264.6,73.6,244,73.6s-30.8-12.8-30.8-31.4
		C213.2,23.7,223.4,10.8,244,10.8z M244,58.2c3.6,0,6.4-2.1,6.4-15.9c0-13.5-2.6-15.9-6.4-15.9s-6.4,2.4-6.4,15.9
		C237.6,56,240.4,58.2,244,58.2z"/>
	<path class="st0" d="M334,52c0,14.4-10.3,21.6-28.3,21.6s-28.3-7.2-28.3-21.6V12.5H301v38.6c0,4.7,2.2,6.5,4.7,6.5s4.7-1.8,4.7-6.5
		V12.5H334L334,52L334,52z"/>
	<path class="st0" d="M340.4,12.5h28.3l12.6,36.1h0.2V12.5h19.2v59.6h-28.3l-12.6-36.3h-0.2v36.3h-19.2V12.5z"/>
	<path class="st0" d="M434.6,38.5h30.7v31.2c-9.2,2.4-20,4-29.7,4c-21.5,0-32-13.1-32-31.4s10.5-31.4,32.6-31.4
		c18.3,0,27.9,6,28.2,20h-22.1c-0.1-1.9-0.8-3.1-1.8-3.9c-1-0.7-2.4-1.1-3.9-1.1c-3.6,0-5.9,1.8-7,4.2c-1.2,2.4-1.5,8.3-1.5,13.3
		c0,5.8,0.5,9.7,1.6,11.6c1.4,2.5,3.7,3.6,6.8,3.6c2.2,0,4.4-0.3,6.3-1.2v-7.2h-8.1L434.6,38.5L434.6,38.5z"/>
	<path d="M189.3,93.2c-0.1-1-0.5-5.2-4.8-5.2c-4.7,0-6.7,5-6.7,11.1c0,1.8,0,10.2,6.2,10.2c2.7,0,5.2-1.7,5.4-5.7h6.7
		c-0.1,1.8-0.3,4.5-2.7,7c-2.6,2.7-6,3.3-8.7,3.3c-10.3,0-13.6-7.6-13.6-15c0-9.5,5.3-15.7,13.7-15.7c6.5,0,11.1,4,11.1,9.9
		L189.3,93.2L189.3,93.2z"/>
	<path d="M213.4,83c3.2,0,7.6,0.7,10.5,4c3.2,3.6,3.8,8.3,3.8,11.2c0,4.3-1.3,9-3.8,11.7c-3.3,3.7-8.1,4.3-10.6,4.3
		c-3.9,0-7.8-1.2-10.6-4.1c-3.3-3.5-3.7-8.4-3.7-11.1C199,91,202.6,83,213.4,83z M207.9,107c0.9,1.2,2.4,2.4,5.4,2.4
		c2.6,0,4.4-0.9,5.6-2.8c1-1.5,2-3.8,2-8.5c0-1.4-0.1-3.5-0.7-5.3c-1.2-3.7-3.8-5.3-6.8-5.3c-2.4,0-4.3,1-5.5,2.5
		c-1.7,2.1-2.2,5.3-2.2,8.7C205.7,101.5,206.2,104.7,207.9,107z"/>
	<path d="M231.7,83.5h9.2l11.2,23.5V83.5h5.9v29.9h-8.8l-11.6-24.8v24.8h-6L231.7,83.5L231.7,83.5z"/>
	<path d="M269.6,88.5h-8.9v-5h24.2v5H276v24.9h-6.4V88.5L269.6,88.5z"/>
	<path d="M288,83.5h11.4c3.3,0,6.6,0,9,2c1.9,1.6,2.6,3.8,2.6,5.7c0,5.6-4.8,6.9-6.2,7.3c4.5,0.4,4.8,3,5.4,6.9
		c0.5,3.5,0.7,5,0.9,5.8c0.3,1.3,0.6,1.7,0.9,2.1h-7.1c-0.3-1.7-1.2-9.2-1.6-10.4c-0.6-1.7-2.1-1.7-3.2-1.7h-5.6v12.1H288L288,83.5
		L288,83.5z M294.3,96.5h5.2c0.7,0,2.2,0,3.3-0.8c0.5-0.3,1.7-1.4,1.7-3.5c0-2-1-3-1.6-3.3c-1-0.7-2.2-0.7-4.2-0.7h-4.3L294.3,96.5
		L294.3,96.5z"/>
	<path d="M331.7,83.5l10.4,29.9h-6.4l-2.1-6.4h-11.8l-2.2,6.4h-6.1l10.8-29.9H331.7z M331.9,102.2l-4.1-12.7l-4.4,12.7H331.9z"/>
	<path d="M361.9,93.2c-0.1-1-0.5-5.2-4.8-5.2c-4.7,0-6.7,5-6.7,11.1c0,1.8,0,10.2,6.2,10.2c2.7,0,5.2-1.7,5.4-5.7h6.7
		c-0.1,1.8-0.3,4.5-2.7,7c-2.6,2.7-6,3.3-8.7,3.3c-10.3,0-13.6-7.6-13.6-15c0-9.5,5.3-15.7,13.7-15.7c6.5,0,11.1,4,11.1,9.9
		L361.9,93.2L361.9,93.2z"/>
	<path d="M378.6,88.5h-8.9v-5h24.2v5H385v24.9h-6.4V88.5z"/>
	<path d="M396.1,83.5h6.4v29.9h-6.4V83.5z"/>
	<path d="M408.2,83.5h9.2l11.2,23.5V83.5h5.9v29.9h-8.7l-11.6-24.8v24.8h-6V83.5z"/>
	<path d="M459.5,92.7c0-0.8-0.1-1.9-0.8-3c-1.2-2-3.6-2.3-5-2.3c-7.3,0-8.7,6.8-8.7,11.4c0,2,0.3,5.7,2.5,8c1.5,1.7,3.5,2.6,7,2.6
		c3.1,0,4.2-0.4,4.9-0.6v-6.3h-5.8v-5h12.2v14.9c-1.9,0.6-4.9,1.7-10.9,1.7c-6.8,0-10.3-1.7-12.7-4c-3.3-3.3-4-8-4-11.1
		c0-10.6,6.6-16.2,15.6-16.2c3.8,0,7.8,1.1,10.2,3.8c2,2.3,2.1,4.6,2.1,6.2L459.5,92.7L459.5,92.7z"/>
</g>
</svg>
