<svg xmlns="http://www.w3.org/2000/svg" viewBox="0 0 56 80"><defs><style>.cls-1{fill:#fff;}</style></defs><title>Asset 2</title><g id="Layer_2" data-name="Layer 2"><g id="Layer_1-2" data-name="Layer 1"><path class="cls-1" d="M28.46,32.06a1.09,1.09,0,0,0,1.09,1.09h18a1.09,1.09,0,0,0,0-2.19h-18A1.09,1.09,0,0,0,28.46,32.06Zm19,4h-18a1.09,1.09,0,0,0,0,2.19h18a1.09,1.09,0,0,0,0-2.19Zm0,5.12h-18a1.09,1.09,0,0,0,0,2.19h18a1.09,1.09,0,0,0,0-2.19Zm-32.12-12a8,8,0,1,0,8,8A8,8,0,0,0,15.38,29.15Zm0,13.86a5.84,5.84,0,1,1,5.8-5.84A5.83,5.83,0,0,1,15.38,43Zm3.06-8.36a1.08,1.08,0,0,0-1.5.35l-1.57,2.52L13.82,35a1.08,1.08,0,0,0-1.5-.35A1.1,1.1,0,0,0,12,36.15l2.49,4a1.08,1.08,0,0,0,1.84,0l2.49-4A1.1,1.1,0,0,0,18.45,34.65Zm29.06,16.5h-18a1.09,1.09,0,0,0,0,2.19h18a1.09,1.09,0,0,0,0-2.19Zm0,5.12h-18a1.09,1.09,0,0,0,0,2.19h18a1.09,1.09,0,0,0,0-2.19Zm0,5.12h-18a1.09,1.09,0,0,0,0,2.19h18a1.09,1.09,0,0,0,0-2.19Zm-32.12-12a8,8,0,1,0,8,8A8,8,0,0,0,15.38,49.34Zm0,13.86a5.84,5.84,0,1,1,5.8-5.84A5.83,5.83,0,0,1,15.38,63.2ZM54.29,12.94H46.17V10.18a1.72,1.72,0,0,0-1.71-1.72H37.34a9.38,9.38,0,0,0-18.67,0H11.54a1.72,1.72,0,0,0-1.71,1.72v2.76H1.71A1.72,1.72,0,0,0,0,14.65V78.28A1.72,1.72,0,0,0,1.71,80H54.29A1.72,1.72,0,0,0,56,78.28V14.65A1.72,1.72,0,0,0,54.29,12.94Zm-41-1h7.07A1.72,1.72,0,0,0,22,10.18V9.44A6,6,0,1,1,34,9.44v.73a1.72,1.72,0,0,0,1.71,1.72h7.07v5.52H13.25ZM52.58,76.56H3.42V16.37H9.83v2.76a1.72,1.72,0,0,0,1.71,1.72H44.46a1.72,1.72,0,0,0,1.71-1.72V16.37h6.42ZM28,5.59a3.83,3.83,0,1,0,3.8,3.83A3.82,3.82,0,0,0,28,5.59Zm0,5.47a1.64,1.64,0,1,1,1.63-1.64A1.64,1.64,0,0,1,28,11.06Z"/></g></g></svg>