<svg xmlns="http://www.w3.org/2000/svg" viewBox="0 0 116.39 80"><defs><style>.cls-1{fill:#fff;}</style></defs><title>Asset 2</title><g id="Layer_2" data-name="Layer 2"><g id="Layer_1-2" data-name="Layer 1"><path class="cls-1" d="M116.39,27.26l-14.94-15h0l-1.92-1.93L68.19,41.84a2.84,2.84,0,0,0-.65,1L60,63.06a2.88,2.88,0,0,0,.61,3,2.83,2.83,0,0,0,2,.87,2.78,2.78,0,0,0,.9-.15l19.88-6.67a2.83,2.83,0,0,0,1.11-.69l30.07-30.36h0Zm-45.51,31L68.67,56.1l3.35-9,8.05,8.11ZM84.4,51.48l-8.87-8.94,24-24.17,8.84,8.9Zm1.32,13.23v9.57H41V63H35.36V74.28H5.68V42.52H35.36v8.79H41V28H35.36V36.8H5.68V5.72H35.36v11H41v-11H62.66V0H0V80H91.4V60l-2.88,2.9A8.39,8.39,0,0,1,85.72,64.71Zm0-48.18,5.68-5.72V0H77.27V5.72h8.46Zm-32.14,9H76.76l5.68-5.72H53.58Z"/></g></g></svg>