<svg id="Layer_1" data-name="Layer 1" xmlns="http://www.w3.org/2000/svg" viewBox="0 0 90 80.11"><defs><style>.cls-1{fill:#fff;}</style></defs><title>Artboard 1</title><path class="cls-1" d="M16.36,8.33H13.12v9.33h3.23Zm5.66,0H18.78v9.33H22Zm5.66,0H24.44v9.33h3.23Zm5.66,0H30.09v9.33h3.23Zm5.66,0H35.75v9.33H39ZM16.36,20.7H13.12V30h3.23Zm5.66,0H18.78V30H22Zm5.66,0H24.44V30h3.23Zm5.66,0H30.09V30h3.23Zm5.66,0H35.75V30H39ZM16.36,33.07H13.12V42.4h3.23Zm5.66,0H18.78V42.4H22Zm5.66,0H24.44V42.4h3.23Zm5.66,0H30.09V42.4h3.23Zm5.66,0H35.75V42.4H39ZM16.36,45.45H13.12v9.33h3.23Zm5.66,0H18.78v9.33H22Zm5.66,0H24.44v9.33h3.23Zm5.66,0H30.09v9.33h3.23Zm5.66,0H35.75v9.33H39ZM16.36,57.82H13.12v9.33h3.23Zm5.66,0H18.78v9.33H22Zm5.66,0H24.44v9.33h3.23Zm5.66,0H30.09v9.33h3.23Zm5.66,0H35.75v9.33H39ZM53.82,45.45H50.59v9.33h3.23Zm5.66,0H56.24v9.33h3.23Zm5.66,0H61.9v9.33h3.23Zm5.66,0H67.56v9.33h3.23Zm5.66,0H73.21v9.33h3.23ZM53.82,57.82H50.59v9.33h3.23Zm5.66,0H56.24v9.33h3.23Zm5.66,0H61.9v9.33h3.23Zm5.66,0H67.56v9.33h3.23Zm5.66,0H73.21v9.33h3.23ZM87.93,76h-3.4V38H47.07V0H5.47V76H2.07a2.08,2.08,0,0,0,0,4.15H87.93a2.08,2.08,0,0,0,0-4.15Zm-45,0H9.61V4.18H42.93Zm37.46,0H47.07V42.16H80.39Z"/></svg>