<?xml version="1.0" encoding="utf-8"?>
<!-- Generator: Adobe Illustrator 21.0.2, SVG Export Plug-In . SVG Version: 6.00 Build 0)  -->
<svg version="1.1" id="Layer_1" xmlns="http://www.w3.org/2000/svg" xmlns:xlink="http://www.w3.org/1999/xlink" x="0px" y="0px"
	 viewBox="0 0 675 486" style="enable-background:new 0 0 675 486;" xml:space="preserve">
<style type="text/css">
	.Arched_x0020_Green{fill:url(#SVGID_1_);stroke:#FFFFFF;stroke-width:0.25;stroke-miterlimit:1;}
	.st0{fill:#005DAA;}
	.st1{fill:#141006;}
</style>
<linearGradient id="SVGID_1_" gradientUnits="userSpaceOnUse" x1="0" y1="486" x2="0.7071" y2="485.2929">
	<stop  offset="0" style="stop-color:#20AC4B"/>
	<stop  offset="0.9831" style="stop-color:#19361A"/>
</linearGradient>
<g>
	<g>
		<g>
			<path class="st0" d="M217.6,253.3l-0.2,0c-4.6-0.7-6.1-4.5-6-7v-33.8c-0.6-11,3.1-16.3,4.1-17.4l22.7-40.3c2.3-3.8,7-3.9,7.5-3.9
				h21.5v18.4h-9.3c-0.9,0-1.4,0.1-1.6,0.2l-16.9,29c-4.7,7.4-4.4,13.7-4.4,13.7l0,0.2V230c0,0.1,0,0.1,0,0.2l0.1,0l0,0.1h31.6v23
				H217.6z"/>
			<path class="st0" d="M134.6,253.3v-23h31.7c0-0.1,0-0.1,0-0.3v-17.8l0-0.1c0,0,0.3-6.3-4.4-13.7l-16.9-29
				c-0.2-0.1-0.7-0.2-1.6-0.2h-9.3v-18.4h21.5c0.5,0,5.2,0.1,7.5,3.9l22.7,40.3c1,1.2,4.7,6.4,4.1,17.4v33.8c0.1,2.4-1.4,6.3-6,7
				l-0.2,0H134.6z"/>
		</g>
		<path class="st1" d="M183,150.8l17.6,32.6l17.6-32.6H183z"/>
	</g>
	<path class="st0" d="M302,190.6l-20.1-39h24.4l8.3,25h0.2l8.3-25h22.6l-20.1,39v20.6H302V190.6z"/>
	<path class="st0" d="M369.2,150c20.6,0,30.8,12.8,30.8,31.4c0,18.6-10.2,31.4-30.8,31.4c-20.6,0-30.8-12.8-30.8-31.4
		C338.4,162.8,348.6,150,369.2,150z M369.2,197.3c3.6,0,6.4-2.1,6.4-15.9c0-13.5-2.6-15.9-6.4-15.9c-3.8,0-6.4,2.4-6.4,15.9
		C362.8,195.2,365.6,197.3,369.2,197.3z"/>
	<path class="st0" d="M459.2,191.2c0,14.4-10.3,21.6-28.3,21.6c-18,0-28.3-7.2-28.3-21.6v-39.6h23.6v38.6c0,4.7,2.2,6.5,4.7,6.5
		c2.5,0,4.7-1.8,4.7-6.5v-38.6h23.6V191.2z"/>
	<path class="st0" d="M465.6,151.6h28.3l12.6,36.1h0.2v-36.1h19.2v59.6h-28.3l-12.6-36.3h-0.2v36.3h-19.2V151.6z"/>
	<path class="st0" d="M559.8,177.6h30.7v31.2c-9.2,2.4-20,4-29.7,4c-21.5,0-32-13.1-32-31.4c0-18.3,10.5-31.4,32.6-31.4
		c18.3,0,27.9,6,28.2,20h-22.1c-0.1-1.9-0.8-3.1-1.8-3.9c-1-0.7-2.4-1.1-3.9-1.1c-3.6,0-5.9,1.8-7,4.2c-1.2,2.4-1.5,8.3-1.5,13.3
		c0,5.8,0.5,9.7,1.6,11.6c1.4,2.5,3.7,3.6,6.8,3.6c2.2,0,4.4-0.3,6.3-1.2v-7.2h-8.1V177.6z"/>
	<path d="M314.5,232.4c-0.1-1-0.5-5.2-4.8-5.2c-4.7,0-6.7,5-6.7,11.1c0,1.8,0,10.2,6.2,10.2c2.7,0,5.2-1.7,5.4-5.7h6.7
		c-0.1,1.8-0.3,4.5-2.7,7c-2.6,2.7-6,3.3-8.7,3.3c-10.3,0-13.6-7.6-13.6-15c0-9.5,5.3-15.7,13.7-15.7c6.5,0,11.1,4,11.1,9.9H314.5z"
		/>
	<path d="M338.6,222.1c3.2,0,7.6,0.7,10.5,4c3.2,3.6,3.8,8.3,3.8,11.2c0,4.3-1.3,9-3.8,11.7c-3.3,3.7-8.1,4.3-10.6,4.3
		c-3.9,0-7.8-1.2-10.6-4.1c-3.3-3.5-3.7-8.4-3.7-11.1C324.2,230.1,327.8,222.1,338.6,222.1z M333.1,246.2c0.9,1.2,2.4,2.4,5.4,2.4
		c2.6,0,4.4-0.9,5.6-2.8c1-1.5,2-3.8,2-8.5c0-1.4-0.1-3.5-0.7-5.3c-1.2-3.7-3.8-5.3-6.8-5.3c-2.4,0-4.3,1-5.5,2.5
		c-1.7,2.1-2.2,5.3-2.2,8.7C330.9,240.7,331.4,243.9,333.1,246.2z"/>
	<path d="M356.9,222.7h9.2l11.2,23.5v-23.5h5.9v29.9h-8.8l-11.6-24.8v24.8h-6V222.7z"/>
	<path d="M394.8,227.6h-8.9v-5h24.2v5h-8.9v24.9h-6.4V227.6z"/>
	<path d="M413.2,222.7h11.4c3.3,0,6.6,0,9,2c1.9,1.6,2.6,3.8,2.6,5.7c0,5.6-4.8,6.9-6.2,7.3c4.5,0.4,4.8,3,5.4,6.9
		c0.5,3.5,0.7,5,0.9,5.8c0.3,1.3,0.6,1.7,0.9,2.1h-7.1c-0.3-1.7-1.2-9.2-1.6-10.4c-0.6-1.7-2.1-1.7-3.2-1.7h-5.6v12.1h-6.5V222.7z
		 M419.5,235.7h5.2c0.7,0,2.2,0,3.3-0.8c0.5-0.3,1.7-1.4,1.7-3.5c0-2-1-3-1.6-3.3c-1-0.7-2.2-0.7-4.2-0.7h-4.3V235.7z"/>
	<path d="M456.9,222.7l10.4,29.9h-6.4l-2.1-6.4h-11.8l-2.2,6.4h-6.1l10.8-29.9H456.9z M457.1,241.3l-4.1-12.7l-4.4,12.7H457.1z"/>
	<path d="M487.1,232.4c-0.1-1-0.5-5.2-4.8-5.2c-4.7,0-6.7,5-6.7,11.1c0,1.8,0,10.2,6.2,10.2c2.7,0,5.2-1.7,5.4-5.7h6.7
		c-0.1,1.8-0.3,4.5-2.7,7c-2.6,2.7-6,3.3-8.7,3.3c-10.3,0-13.6-7.6-13.6-15c0-9.5,5.3-15.7,13.7-15.7c6.5,0,11.1,4,11.1,9.9H487.1z"
		/>
	<path d="M503.8,227.6h-8.9v-5h24.2v5h-8.9v24.9h-6.4V227.6z"/>
	<path d="M521.3,222.6h6.4v29.9h-6.4V222.6z"/>
	<path d="M533.4,222.7h9.2l11.2,23.5v-23.5h5.9v29.9H551l-11.6-24.8v24.8h-6V222.7z"/>
	<path d="M584.7,231.8c0-0.8-0.1-1.9-0.8-3c-1.2-2-3.6-2.3-5-2.3c-7.3,0-8.7,6.8-8.7,11.4c0,2,0.3,5.7,2.5,8c1.5,1.7,3.5,2.6,7,2.6
		c3.1,0,4.2-0.4,4.9-0.6v-6.3h-5.8v-5H591v14.9c-1.9,0.6-4.9,1.7-10.9,1.7c-6.8,0-10.3-1.7-12.7-4c-3.3-3.3-4-8-4-11.1
		c0-10.6,6.6-16.2,15.6-16.2c3.8,0,7.8,1.1,10.2,3.8c2,2.3,2.1,4.6,2.1,6.2H584.7z"/>
</g>
</svg>
